<?xml version="1.0" encoding="UTF-8" standalone="no"?>
<svg
   xmlns:dc="http://purl.org/dc/elements/1.1/"
   xmlns:cc="http://creativecommons.org/ns#"
   xmlns:rdf="http://www.w3.org/1999/02/22-rdf-syntax-ns#"
   xmlns:svg="http://www.w3.org/2000/svg"
   xmlns="http://www.w3.org/2000/svg"
   viewBox="0 0 187.22667 187.22667"
   height="187.22667"
   width="187.22667"
   xml:space="preserve"
   id="svg2"
   version="1.1"><metadata
     id="metadata8"><rdf:RDF><cc:Work
         rdf:about=""><dc:format>image/svg+xml</dc:format><dc:type
           rdf:resource="http://purl.org/dc/dcmitype/StillImage" /><dc:title></dc:title></cc:Work></rdf:RDF></metadata><defs
     id="defs6" /><g
     transform="matrix(1.3333333,0,0,-1.3333333,0,187.22667)"
     id="g10"><g
       transform="scale(0.1)"
       id="g12"><path
         id="path16"
         style="fill:#ffffff;fill-opacity:1;fill-rule:nonzero;stroke:none"
         d="m 34.5859,702.094 c 0,-184.336 74.7151,-351.172 195.5161,-471.973 v 0 C 350.906,109.301 517.738,34.5898 702.063,34.5898 v 0 c 184.355,0.0196 351.207,74.7112 472.027,195.5312 v 0 c 120.81,120.801 195.51,287.637 195.51,471.973 v 0 c 0,184.312 -74.7,351.186 -195.51,472.006 v 0 c -120.82,120.81 -287.68,195.54 -472.027,195.54 v 0 c -207.352,0 -392.598,-94.57 -515.047,-242.95 v 0 h -0.004 C 91.793,1011.27 34.5859,863.383 34.5859,702.094 Z m -10.0625,0 C 24.5117,865.777 82.5898,1015.98 179.242,1133.1 v 0 c 124.258,150.6 312.36,246.61 522.821,246.61 v 0 c 374.257,0 677.617,-303.43 677.617,-677.616 v 0 C 1379.68,327.91 1076.32,24.5117 702.063,24.5117 v 0 C 327.887,24.5117 24.5234,327.91 24.5234,702.094 v 0" /><path
         id="path18"
         style="fill:#ffffff;fill-opacity:1;fill-rule:nonzero;stroke:none"
         d="m 173.395,427.227 c 0.113,8.847 7.363,15.941 16.218,15.824 8.856,-0.102 15.957,-7.348 15.852,-16.211 -0.106,-8.871 -7.367,-15.957 -16.223,-15.863 -8.855,0.117 -15.941,7.382 -15.847,16.25" /><path
         id="path20"
         style="fill:#ffffff;fill-opacity:1;fill-rule:nonzero;stroke:none"
         d="m 1193.2,417.656 c 0.11,8.852 7.37,15.938 16.22,15.821 8.85,-0.094 15.95,-7.34 15.84,-16.211 -0.1,-8.844 -7.36,-15.957 -16.21,-15.836 -8.86,0.109 -15.95,7.363 -15.85,16.226" /><path
         id="path22"
         style="fill:#ffffff;fill-opacity:1;fill-rule:nonzero;stroke:none"
         d="M 1156.28,510.195 C 1131.44,451.68 1096.05,399.121 1050.88,353.93 1005.73,308.828 953.184,273.359 894.641,248.578 871.598,238.809 848.027,230.922 824.008,224.859 l -0.563,9.789 c 0,5.903 -6.672,8.852 -10.324,8.852 l -21.144,-0.328 c 0,0 -6.504,1.578 -7.289,1.828 -0.793,0.238 -0.594,1.078 -0.465,1.23 1.484,1.801 1.57,4.399 0.117,6.29 l -16.121,21.039 0.515,14.961 c 47.414,1.152 82.321,19.16 98.61,31.031 16.011,11.859 17.043,29.961 17.07,35.328 0,0.793 -0.023,1.312 -0.027,1.551 l -0.492,42.011 c 0.152,0.079 0.308,0.098 0.46,0.168 l -0.003,0.02 44.929,25.219 c 1.731,0.976 2.723,2.851 2.559,4.843 l -29.5,328.711 c 1.281,0.434 5.465,1.875 10.172,3.633 5.734,2.207 11.789,4.555 15.375,6.895 3.226,2.265 16.758,13.656 20.023,17.035 2.852,3.047 3.926,6.93 3.899,10.406 -0.051,5.41 -2.137,10.219 -4.243,14.024 -1.859,3.203 -4.406,5.839 -7.175,8.109 6.195,13.789 9.336,29.098 9.328,44.894 0.008,27.575 -6.59,49.27 -12.946,69.797 -6.382,20.563 -12.496,39.942 -12.496,63.809 0,44.306 0.465,70.606 0.465,70.666 0.02,1.35 -0.5,2.65 -1.445,3.62 -0.938,0.97 -2.238,1.51 -3.594,1.51 -14.875,0.05 -24.113,-4.87 -29.176,-10.35 -2.379,-2.56 -3.828,-5.11 -4.711,-7.16 H 794.91 c -0.89,2.26 -2.371,5.2 -4.828,8.19 -4.91,6.07 -14.141,11.92 -28.555,11.85 -1.339,0 -2.625,-0.53 -3.574,-1.49 -0.949,-0.96 -1.473,-2.25 -1.469,-3.6 0,-0.08 0.286,-33.42 0.274,-80.166 0.023,-3.683 -0.156,-7.312 -0.465,-10.914 -1.855,2.942 -3.867,5.871 -5.996,8.664 -5.625,7.211 -11.531,13.556 -18.832,15.956 -6.582,2.01 -16.332,5.05 -27.766,8.53 -4.187,1.32 -5.922,3.25 -7.105,5.36 -0.688,1.25 -1.071,2.65 -1.281,3.95 l 5.57,-0.12 h 0.273 c 5.032,0.18 9.309,0.84 12.965,2.35 3.606,1.45 6.91,4.16 8.125,8.19 0.629,2.05 0.828,4.03 0.828,5.77 -0.004,1.99 -0.246,3.71 -0.5,4.98 l 2.383,4.18 c 0.785,1.37 0.871,3 0.297,4.39 1.094,1.02 1.68,2.5 1.586,4.02 l -0.352,5.18 c 0.246,0.04 0.492,0.08 0.754,0.12 1.531,0.29 3.129,0.66 4.778,1.41 0.828,0.39 1.726,0.86 2.66,1.79 0.918,0.89 1.918,2.57 1.902,4.52 -0.019,1.37 -0.305,4.58 -0.73,9.64 -1.086,12.41 -3.075,33.46 -3.684,40 2.055,2.77 5.598,8.44 5.754,15.83 0.016,4.76 -1.375,10.36 -5.715,14.74 -4.227,4.28 -10.797,6.79 -19.605,6.89 -3.903,1.04 -24.235,6.44 -30.122,7.32 -4.371,0.61 -10.222,1.63 -17.128,1.63 -11.754,0.05 -26.625,-3.13 -42.762,-15.61 -20.86,-16.43 -22.57,-45.86 -22.711,-58.95 0,-2.52 0.086,-4.48 0.156,-5.63 -0.699,-2.1 -1.754,-6.43 -1.754,-13.35 0,-3.79 0.317,-8.34 1.176,-13.75 2.035,-13.07 10.117,-20.95 17.254,-25.02 3.617,-2.09 7.035,-3.34 9.574,-4.07 v -9.58 c -3.949,-1.99 -29.097,-13.04 -53.262,-29.689 -0.5,-0.469 -2.496,-1.602 -4.367,-3.727 -0.051,-0.043 -0.109,-0.074 -0.156,-0.117 L 296.852,709.277 c -0.957,-0.957 -1.493,-2.304 -1.457,-3.672 0.039,-1.367 0.636,-2.675 1.644,-3.593 0.051,-0.039 18.723,-17.032 39.445,-35.996 5.164,-4.723 10.454,-9.547 15.618,-14.297 l -49.797,-68.297 c -4.2,-5.356 -6.891,-13.086 -6.871,-23.402 0.062,-20.84 10.382,-52.5 42.015,-101.778 36.098,-56.094 63.742,-81.972 73.934,-90.461 L 398.23,352.68 c -0.437,-0.469 -4.652,-4.942 -8.996,-10.692 -2.277,-2.976 -4.589,-6.316 -6.406,-9.699 -0.441,-0.84 -0.855,-1.66 -1.242,-2.5 -8.898,7.711 -17.566,15.762 -25.981,24.16 -45.121,45.172 -80.542,97.731 -105.269,156.246 -25.695,60.528 -38.695,124.942 -38.695,191.407 0,66.308 13,130.664 38.695,191.242 24.727,58.648 60.148,111.176 105.269,156.356 45.231,45.1 97.719,80.55 156.293,105.34 60.645,25.59 124.954,38.54 191.415,38.55 66.335,-0.01 130.703,-12.96 191.328,-38.55 58.543,-24.79 111.089,-60.24 156.239,-105.34 45.19,-45.18 80.56,-97.708 105.41,-156.337 25.58,-60.597 38.55,-124.953 38.55,-191.261 0,-66.465 -12.97,-130.879 -38.56,-191.407 z M 701.121,210 c 28.805,4.961 54.25,14.398 72.863,27.809 l 15.829,-4.547 c 0.57,-0.153 1.179,-0.231 1.781,-0.211 0,0 14.722,0.801 15.945,0.898 4.195,0.25 6.074,-2.23 6.113,-3.109 0.024,-0.879 0.121,-1.969 0.121,-1.969 0,0 0.18,-2.621 -1.539,-4.32 -1.57,-1.563 -12.933,-4.699 -17.074,-6.012 -30.062,-5.687 -60.734,-8.578 -91.847,-8.578 -0.731,0 -1.461,0.039 -2.192,0.039 z M 411.586,343.73 c 1.812,-0.039 3.84,-0.058 6.105,-0.082 40.004,0.024 146.563,9.204 224.207,100.731 63.915,75.855 79.938,220.641 82.438,245.973 l 20.019,1.425 c -0.71,-10.371 -2.484,-34.922 -5.601,-68.125 -4.168,-44.531 -10.723,-104.433 -20.234,-166.054 -9.528,-61.618 -20.985,-122.676 -30.067,-168.336 -6.719,-33.774 -12.121,-59.024 -14.476,-69.922 -0.223,-0.981 -1.454,-2.801 -3.805,-2.801 -5.539,0 -11.133,-0.5 -16.789,-0.48 -18.395,-0.02 -37.36,1.722 -56.094,5.332 -9.805,2.168 -19.547,4.589 -29.207,7.359 -69.453,21.898 -109.762,52.828 -132.754,77.871 -11.523,12.578 -18.695,23.731 -22.969,31.699 -0.695,1.289 -1.3,2.461 -1.839,3.559 -0.586,1.191 0.066,1.891 1.066,1.851 z m 2.422,11.719 c 1.269,1.449 137.09,157.387 137.09,157.387 0.5,0.562 0.855,1.25 1.054,1.969 0,0 40.184,148.3 40.461,149.336 0.278,1.054 1.328,1.328 1.328,1.328 0,0 71.235,19.496 73.973,20.293 2.754,0.785 6.699,1.117 6.699,1.117 l 39.551,2.769 c -0.469,-4.605 -1.281,-12.031 -2.586,-21.558 -6.734,-50.121 -27.242,-158.285 -77.367,-217.192 -74.617,-88.16 -177.859,-97.187 -216.52,-97.168 -0.859,0 -1.675,0 -2.472,0.02 -1.469,0 -2.481,0.238 -1.211,1.699 z m 398.875,664.871 v -39.336 c -3.387,-1.882 -5.988,-3.515 -7.41,-4.371 -4.551,-2.894 -10.692,-8.39 -11.864,-9.418 l -0.031,-0.031 c 1.77,13.434 3.031,30.367 3.199,53.156 z m 22.883,0 v -30.07 c -4.403,-0.945 -8.786,-2.48 -12.813,-4.238 v 34.308 z m 22.125,0 v -30.957 c -3.633,1.352 -7.692,1.805 -12.047,1.86 v 29.097 z m 19.226,-64.82 c -0.57,1.797 -1.703,4.48 -5.16,5.648 -0.894,0.258 -1.844,0.5 -2.746,0.7 -0.027,3.172 -0.063,7.601 -0.063,11.054 0.063,2.422 -0.371,4.746 -1.179,6.86 v 40.558 h 15.816 c 0.262,-41.562 3.891,-66.226 7.516,-84.113 3.804,-18.648 7.347,-29.367 7.332,-44.273 0.012,-16.02 -6.172,-31.297 -16.32,-42.45 -4.176,-4.597 -9.012,-8.468 -14.344,-11.472 v 98.019 c 0.359,0.043 0.738,0.094 1.054,0.121 0.489,0.036 0.922,0.094 1.247,0.125 0.312,0.028 0.429,0.016 0.429,0.028 1.879,0 3.211,0.918 3.879,1.562 2.145,2.391 2.106,3.785 2.672,5.746 0.387,1.875 0.609,3.985 0.621,6.11 -0.012,1.929 -0.16,3.82 -0.754,5.777 z M 845.844,831.406 v 101.192 c 4.64,1.14 8.676,2.168 10.179,2.539 h 1.868 V 833.652 c -3.848,-1.211 -7.871,-1.972 -12.047,-2.246 z m -22.891,2.563 v 94.363 c 0.899,0.055 1.77,0.082 2.457,0.082 2.074,0.047 4.18,0.524 7.371,1.152 0.946,0.207 1.942,0.43 2.985,0.664 v -98.628 c -4.383,0.39 -8.664,1.195 -12.813,2.367 z m -42.109,45.5 c 11.773,14.445 24.754,32.168 32.039,42.258 v -84.09 c -5.039,2.328 -9.723,5.254 -13.84,8.75 -9.488,8.136 -16.168,19.117 -18.199,33.082 z m 1.972,-184.41 3.668,0.742 c 2.332,0.492 4.012,2.558 4.024,4.922 l 0.172,65.371 c 13.437,-5.426 29.086,-8.551 46.886,-8.551 0.063,0 0.114,0 0.168,0 11.43,-0.023 22.055,1.266 31.879,3.531 l 4.696,-404.926 0.011,-0.25 c 0,0 0.02,-0.269 0.02,-1.019 0.031,-4.141 -1.074,-18.649 -12.938,-27.18 -14.722,-10.758 -47.714,-27.91 -92.324,-29.097 z M 614.352,811.602 c -7.957,10.918 -31.11,43.371 -38.942,102.507 0.547,-0.621 1.094,-1.238 1.645,-1.824 8.39,-8.777 17.886,-14.613 23.558,-17.527 50.485,-27.055 131.559,-58.977 131.645,-59.016 0.051,0 0.109,-0.019 0.16,-0.039 0.719,-3.379 1.652,-6.695 2.727,-10.019 l -76.063,-4.649 c 0,0 -8.926,-0.39 -15.367,-2.226 -7.777,-2.188 -25.563,-7.246 -26.758,-7.633 -1.488,-0.492 -2.348,0.054 -2.605,0.426 z M 583.379,684.395 c 0,0 32.781,113.261 33.223,114.785 0.433,1.523 1.957,1.957 1.957,1.957 0,0 23.984,6.715 27.808,7.965 3.821,1.234 10.094,1.699 10.094,1.699 l 82.441,5.043 c 4.313,-9.653 10.207,-18.793 17.821,-26.821 6.679,-7.05 14.664,-13.203 23.902,-18.203 0,0 -0.176,-62.691 -0.176,-63.886 0,-1.192 -0.582,-2.516 -3.222,-2.754 -2.649,-0.211 -82.926,-5.821 -102.926,-7.246 -2.848,-0.172 -6.238,-0.68 -9.301,-1.524 -3.051,-0.859 -72.949,-20 -72.949,-20 0,0 -2.395,-0.367 -3.59,0.551 -1.191,0.957 -1.82,1.465 -3.965,3.16 -2.148,1.723 -1.117,5.274 -1.117,5.274 z M 759.117,268.852 c 0,0 13.074,-16.93 13.574,-17.704 0.508,-0.757 0.106,-1.636 -0.253,-1.929 -19.782,-16.149 -51.84,-27.438 -88.512,-31.481 5.781,26.641 28.051,131.543 44.554,238.336 17.004,110.117 24.555,214.668 26.024,236.406 0,0 13.23,0.879 15.547,1.094 2.304,0.235 2.601,-1.133 2.547,-2.539 -0.047,-1.426 -14.516,-418.945 -14.516,-418.945 -0.039,-1.168 0.324,-2.301 1.035,-3.238 z m 162.25,163.691 c 0,0 0.176,-1.469 -1,-2.152 -1.187,-0.664 -36.605,-20.547 -36.605,-20.547 l -4.106,354.004 c 4.016,1.308 7.871,2.832 11.574,4.511 z m -14.801,349.781 c -2.722,3.852 -3.613,6.446 -3.582,8.145 0,0.586 0.082,1.117 0.27,1.742 h 0.023 c 0.383,0.934 3.403,4.176 6.098,6.465 2.719,2.379 5.156,4.215 5.168,4.234 1.418,0.86 2.32,3.145 2.215,4.492 -0.082,2.016 -0.606,2.715 -0.918,3.496 -0.348,0.723 -0.707,1.329 -0.977,1.899 -0.343,0.758 -0.562,2.437 0.957,3.941 1.715,1.739 4.125,1.035 4.641,0.805 1.844,-0.742 4.934,-2.152 7.894,-3.906 4.387,-2.563 8.809,-6.172 10.438,-9.203 1.645,-2.832 2.988,-6.543 2.93,-9.063 -0.024,-1.68 -0.7,-2.945 -1.52,-3.863 -1.613,-1.86 -16.418,-14.281 -17.941,-15.215 -1.578,-1.137 -7.926,-3.828 -13.293,-5.824 -1.571,-0.582 -3.086,-1.129 -4.442,-1.621 -1.847,-0.782 -2.14,0.453 -2.14,0.453 0,0 -0.371,1.09 0.355,1.793 0.852,0.683 1.707,1.484 2.516,2.367 0.894,1.172 2.199,2.262 2.398,5.426 0.016,1.054 -0.328,2.383 -1.09,3.437 z M 766.621,1061.25 c 0,2.21 0.774,2.58 1.145,2.53 7.687,-1.22 11.851,-4.54 14.547,-7.71 1.648,-2.01 2.652,-4.02 3.23,-5.51 0.285,-0.74 0.473,-1.35 0.574,-1.74 0.051,-0.19 0.078,-0.32 0.094,-0.4 l 0.004,-0.01 c 0.41,-2.42 2.523,-4.2 4.976,-4.2 h 98.301 c 2.5,0 4.613,1.82 4.985,4.3 0.101,0.49 0.878,3.66 4.035,6.69 2.633,2.47 6.961,5.16 14.808,6.14 1.071,0.23 1.25,-0.82 1.25,-1.75 0,-10.41 -0.367,-32.1 -0.367,-63.586 0,-25.652 6.613,-46.324 12.953,-66.793 6.356,-20.512 12.485,-40.856 12.485,-66.813 0,-13.882 -2.645,-27.164 -7.766,-39.195 -4.52,2.52 -8.305,4.063 -10.398,4.649 -0.719,0.199 -1.434,0.277 -2.102,0.277 -3.988,-0.18 -6.555,-1.938 -9.086,-3.695 -2.48,-2.008 -4.375,-3.418 -5.801,-6.524 -0.394,-1.031 -0.562,-2.109 -0.562,-3.086 0.062,-2.754 0.996,-4.648 1.722,-6.109 -1.043,-0.863 -2.265,-1.875 -3.531,-3.012 -1.633,-1.465 -3.344,-3.066 -4.82,-4.742 -1.484,-1.723 -2.82,-3.266 -3.652,-5.766 -0.493,-1.519 -0.739,-3.125 -0.735,-4.726 0.016,-3.082 0.867,-5.938 2.289,-8.77 -15.242,-8.847 -34.375,-14.062 -57.465,-14.082 -33.625,0.02 -57.714,11.563 -73.703,28.344 -11.886,12.516 -19.265,28.102 -22.25,44.234 4.961,4.2 13.668,11.868 24.723,22.961 1.879,1.895 3.934,4.117 6.101,6.559 3.547,-12.633 10.649,-23.152 19.907,-30.985 12.902,-10.972 29.824,-16.89 47.343,-17.421 0.313,-0.055 0.625,-0.094 0.95,-0.094 0.133,0 0.265,0.015 0.394,0.039 0.406,-0.024 0.813,-0.063 1.223,-0.063 37.859,0.118 66.223,33.625 66.293,70.743 -0.02,16.671 -3.91,28.312 -7.531,46.285 -3.661,18.023 -7.34,43.039 -7.34,87.151 0,1.32 -0.539,2.61 -1.481,3.55 -0.933,0.94 -2.23,1.47 -3.558,1.47 h -97.051 c -1.332,0 -2.633,-0.53 -3.57,-1.46 -0.926,-0.95 -1.481,-2.24 -1.481,-3.56 -0.004,-31.565 -2.019,-51.827 -4.637,-66.948 l -22.793,-17.317 c 1.813,6.551 3.438,13.204 4.711,20 0.086,0.293 0.149,0.571 0.176,0.868 1.61,8.757 2.637,17.761 2.676,27.101 0,33.116 -0.137,59.556 -0.215,72.176 z M 608.738,984.422 c 7.703,0.027 14.582,-2.219 18.586,-6.277 6.543,-6.543 13.614,-15.45 18.969,-22.676 5.371,-7.231 9.012,-12.723 9.023,-12.739 0.368,-0.566 0.832,-1.023 1.379,-1.394 l 60.383,-40.656 c 1.789,-1.227 4.137,-1.153 5.867,0.152 l 76.883,58.434 0.328,0.273 c 0,0 1.699,1.535 3.93,3.402 2.219,1.852 5.016,4.067 6.75,5.149 4,2.64 20.973,12.691 31.758,12.996 0.953,0.043 1.871,0.074 2.742,0.074 5.199,0.028 9.035,-0.875 10.937,-2.14 1.832,-1.313 2.657,-2.36 2.797,-6.118 0,-6.148 0.106,-15.234 0.106,-15.234 0.023,-2.441 1.777,-4.066 4.179,-4.484 1.899,0 4.438,-0.551 4.438,-3.461 0,-3.336 -2.281,-3.828 -3.355,-3.965 -1.84,-0.223 -3.563,-0.445 -4.27,-0.547 l -4.746,0.016 -1.277,-0.157 c -0.012,0 -6.485,-1.683 -13.457,-3.351 -3.477,-0.828 -7.075,-1.672 -9.989,-2.278 -1.453,-0.304 -2.746,-0.566 -3.73,-0.734 -0.481,-0.07 -0.895,-0.144 -1.192,-0.176 -0.289,-0.043 -0.367,-0.027 -0.367,-0.043 -4.449,-0.015 -11.332,-0.769 -11.441,-0.785 -1.43,-0.16 -2.739,-0.933 -3.563,-2.101 -0.023,-0.028 -8.519,-12.11 -19.199,-26.356 -10.656,-14.242 -23.574,-30.719 -31.828,-38.984 -8.578,-8.59 -15.707,-15.094 -20.664,-19.41 -1.547,-1.348 -2.879,-2.469 -3.981,-3.387 -0.558,-0.492 -1.937,-1.098 -3.367,-0.512 -7.383,3.039 -23.129,9.344 -42.086,17.453 -26.465,11.309 -59.183,25.992 -84,39.278 -4.937,2.531 -13.683,7.925 -20.926,15.55 -0.785,0.821 -1.539,1.688 -2.281,2.551 -0.234,0.278 -0.472,0.57 -0.703,0.84 -0.555,0.684 -1.094,1.375 -1.609,2.074 -0.403,0.543 -0.785,1.098 -1.168,1.645 -0.328,0.48 -0.641,0.953 -0.953,1.445 -0.352,0.555 -0.7,1.129 -1.039,1.703 -0.125,0.246 -0.258,0.496 -0.387,0.727 -0.672,1.219 -1.289,2.476 -1.836,3.761 -0.078,0.18 -0.149,0.352 -0.234,0.528 -0.297,0.762 -0.59,1.515 -0.844,2.269 0,0.016 0,0.016 0,0.016 -0.008,0.02 -0.008,0.031 -0.016,0.047 -0.457,1.351 -0.808,2.726 -1.105,4.148 -0.125,0.606 -0.246,1.211 -0.344,1.825 -0.066,0.464 -0.133,0.933 -0.18,1.394 -0.129,1.18 -0.218,2.34 -0.218,3.551 0,0.789 0.039,1.594 0.089,2.394 0.055,0.664 0.129,1.356 0.219,2.032 0.012,0.117 0.024,0.218 0.031,0.336 0.235,1.613 0.571,3.261 1.039,4.949 0,0.011 0,0.011 0,0.011 l 0.004,0.024 c 0.282,1.008 0.614,2.047 0.989,3.109 0.023,0.063 0.039,0.102 0.058,0.16 0.356,0.961 0.75,1.969 1.192,2.957 0.062,0.149 0.121,0.29 0.183,0.43 0.422,0.918 0.891,1.867 1.379,2.824 0.117,0.2 0.215,0.414 0.328,0.629 0.614,1.133 1.281,2.285 2.016,3.473 v 0 c 4.566,7.66 17.719,13.465 29.773,13.336 z m 49.313,-9.645 c 0.894,-0.699 1.984,-1.058 3.109,-1.058 0.11,0 0.227,0 0.332,0 l 58.649,3.988 c 1.922,0.133 3.597,1.34 4.324,3.137 0.73,1.781 0.375,3.804 -0.906,5.242 l -10.551,11.82 c 6.133,-1.879 11.422,-3.519 15.504,-4.765 3.136,-0.789 8.894,-5.864 13.773,-12.438 4.617,-6.027 8.852,-13.172 11.633,-18.941 -2.078,-10.403 -5.063,-20.657 -8.219,-30.981 l -25.992,-19.746 -56.566,38.117 c -2.868,4.235 -16.024,23.403 -28.688,36.114 -6.715,6.64 -16.215,9.222 -25.715,9.238 -1.75,-0.016 -3.508,-0.117 -5.269,-0.293 2.476,1.352 4.961,2.68 7.383,3.961 3.683,1.958 7.222,3.788 10.371,5.418 z m 58.41,83.643 c 0,0 0.078,-1.57 -1.258,-2.31 -1.336,-0.75 -2.25,-2.07 -2.5,-3.58 -0.242,-1.51 0.41,-2.94 1.223,-4.18 0.195,-0.3 0.246,-0.95 -0.102,-1.55 -0.34,-0.61 -0.992,-1.75 -0.992,-1.75 -0.707,-1.23 -0.855,-2.71 -0.414,-4.06 0,0 0,0 0.059,-0.2 0.164,-0.58 0.531,-2.25 0.519,-3.98 0,-0.97 -0.777,-3.79 -2.746,-4.65 -1.875,-0.8 -5.059,-1.44 -9.23,-1.58 l -10.629,0.22 c -2.461,0.06 -4.61,-1.7 -5.043,-4.12 -0.043,-0.24 -0.289,-1.61 -0.289,-3.67 0.004,-2.78 0.406,-6.9 2.656,-11.1 0.844,-1.64 2.019,-3.23 3.496,-4.69 0.023,-0.02 0.027,-0.04 0.055,-0.08 h -0.012 l 17.93,-20.081 -46.45,-3.161 -31.625,24.742 c 1.551,0.78 2.454,1.24 2.454,1.24 1.726,0.84 2.804,2.58 2.804,4.51 V 1029 l 20.309,20.36 c 1.25,1.25 1.754,3.1 1.32,4.79 -0.437,1.73 -1.762,3.09 -3.445,3.6 v 0.01 c -0.922,0.63 -7.008,2.58 -7.207,15.01 0.066,2.05 0.566,2.32 1.008,2.79 0.164,0.13 0.343,0.25 0.492,0.32 l 13.203,0.11 c 1.558,0.01 3.027,0.75 3.973,1.99 0,0 21.136,27.94 22.597,29.75 1.449,1.83 3.664,1.97 3.664,1.97 l 28.637,3.13 c 0,0 1.461,0.08 1.684,-1.69 0.246,-2.66 0.546,-5.85 0.871,-9.34 0.062,-1.47 -0.907,-2.02 -1.457,-2.03 -3.641,-0.11 -7.43,-0.22 -11.469,-0.38 -4.234,-0.16 -8.848,-2.09 -11.891,-4.66 -2.261,-1.9 -2.34,-5.44 -0.234,-7.46 1.156,-1.12 3.672,-1.5 6.422,-2.33 3.476,-1.04 7.336,-2.37 9.273,-1.75 2.461,0.79 3.395,2.97 3.563,5.36 0.187,2.66 1.785,4.49 4.468,4.49 1.137,0 1.829,-0.94 1.93,-1.9 0.512,-5.02 1.426,-11.37 1.738,-14.98 0.145,-1.76 0.297,-3.4 0.399,-4.78 0.047,-1.79 -1.527,-1.94 -2.332,-2.02 -1.672,-0.22 -2.988,-0.26 -2.988,-0.27 -1.364,-0.07 -2.625,-0.67 -3.532,-1.69 -0.91,-1.02 -1.363,-2.33 -1.258,-3.69 z m -77.047,38.5 c -0.894,2.57 -3.644,3.97 -6.223,3.17 2.2,1.97 4.375,3.86 6.481,5.65 l 21.637,2.83 c 2.757,0.38 4.699,2.91 4.336,5.66 -0.356,2.76 -2.891,4.7 -5.657,4.35 l -3.293,-0.44 c 6.762,3.98 13.692,7.2 19.399,9.56 3.855,1.59 7.16,2.8 9.476,3.6 2.321,0.79 3.594,1.17 3.602,1.18 2.664,0.79 4.187,3.59 3.402,6.27 -0.801,2.66 -3.605,4.18 -6.269,3.39 -0.157,-0.06 -8.575,-2.54 -19.457,-7.46 1.582,2.27 1.035,5.41 -1.239,7 -2.273,1.59 -5.414,1.05 -7.015,-1.22 L 647.016,1124 c -1.036,-0.68 -2.078,-1.37 -3.094,-2.07 -1.488,-1.06 -3.125,-2.29 -4.859,-3.66 l 1.175,2.3 c 1.27,2.47 0.293,5.52 -2.172,6.78 -2.48,1.28 -5.523,0.3 -6.781,-2.18 l -12.695,-24.68 c -3.152,-2.92 -6.078,-5.69 -8.586,-8.06 0.394,13.19 3.945,36.37 18.734,47.43 14.539,11.12 26.582,13.49 36.614,13.53 5.918,0 11.113,-0.9 15.718,-1.56 2.188,-0.28 9.938,-2.15 16.664,-3.86 6.801,-1.74 12.907,-3.36 12.914,-3.38 l 1.309,-0.16 c 7.441,-0.02 11.117,-1.94 13.102,-3.92 1.984,-1.99 2.769,-4.68 2.785,-7.64 0.027,-2.55 -1.067,-5.4 -2.313,-7.56 -0.441,-0.79 -0.863,-1.42 -1.254,-1.96 l -37.617,-4.14 c -1.371,-0.15 -2.629,-0.85 -3.472,-1.94 l -23.696,-31.22 -11.594,-0.08 -1.046,-0.14 c -0.469,-0.11 -2.59,-0.58 -4.942,-2.54 -2.379,-1.88 -4.719,-5.66 -4.644,-10.52 -0.039,-9.4 3.195,-15.86 6.765,-19.6 0.371,-0.41 0.739,-0.77 1.106,-1.11 l -15.434,-15.47 c -2.402,0.64 -6.297,1.98 -9.953,4.55 -4.684,3.3 -8.949,8.14 -10.34,16.62 -0.781,4.9 -1.055,8.94 -1.055,12.15 0.004,3.41 0.297,5.87 0.614,7.58 0.058,0.06 0.129,0.08 0.187,0.14 0.004,0.01 2.27,2.23 5.817,5.62 l 21.3,7.28 c 2.629,0.91 4.04,3.77 3.141,6.39 z M 374.91,569.063 c 2.828,-0.547 5.485,-0.801 7.957,-0.801 8.879,-0.039 15.352,3.359 19.289,6.816 3.973,3.438 5.614,6.817 5.817,7.227 l 0.015,0.039 c 0.008,0.019 0.016,0.043 0.016,0.043 0.027,0.054 0.062,0.133 0.121,0.269 l 0.281,0.664 153.348,358.633 c 0.324,-2.387 1.027,-7.039 1.687,-9.269 2.379,-40.286 11.622,-68.496 21.348,-90.164 5.617,-12.54 11.34,-22.129 15.816,-28.868 2.247,-3.379 4.176,-6.074 5.618,-8.007 0.476,-0.665 0.91,-1.25 1.261,-1.719 L 571.73,680.391 c -0.57,-1.953 0.106,-4.082 1.692,-5.348 l 8.519,-6.762 c 0,0 1.082,-0.996 0.575,-2.851 -0.5,-1.856 -39.782,-146.856 -39.782,-146.856 L 418.004,375.371 c -9.219,7.66 -36.301,32.719 -72.074,88.32 -31.188,48.403 -40.492,78.926 -40.426,96.329 0.016,8.671 2.172,13.925 4.726,17.191 0.04,0.035 0.079,0.074 0.114,0.113 l 0.121,0.18 c 0.144,0.172 0.305,0.387 0.457,0.562 2.855,3.164 6.359,4.258 9,4.258 0.332,0 0.652,0 0.961,-0.058 13.883,-1.598 33.476,-9.121 54.027,-13.203 z M 307.715,705.938 557.102,958.105 407.594,607.109 c -2.223,5.86 -6.164,12.27 -12.723,18.594 -13.976,13.559 -71.601,66.059 -87.156,80.235 z m 80.14,-87.461 c 10.27,-10.055 12.11,-18.789 12.165,-24.684 0,-2.387 -0.34,-4.301 -0.665,-5.57 -0.156,-0.625 -0.312,-1.09 -0.414,-1.383 -0.031,-0.078 -0.046,-0.141 -0.07,-0.18 -0.457,-0.683 -4.476,-8.316 -16.004,-8.316 -1.781,0 -3.773,0.172 -6.015,0.625 -19.512,3.789 -38.786,11.344 -54.719,13.316 -0.262,0.039 -0.57,0.02 -0.856,0.059 l 38.293,52.5 c 12.496,-11.5 23.325,-21.582 28.285,-26.367 z M 392.027,321 c -0.754,0.621 -2.039,2.75 -1.386,4.371 0.273,0.668 0.644,1.391 1.047,2.129 2.167,4.039 5.695,8.73 8.632,12.289 5.223,-11.23 17.789,-32.969 44.348,-56.43 C 426.344,294.73 408.77,307.27 392.027,321 Z m 773.553,575.789 c -25.35,59.813 -61.49,113.441 -107.58,159.531 -46.05,46 -99.699,82.21 -159.449,107.52 -61.867,26.09 -127.59,39.33 -195.238,39.33 -67.762,0 -133.465,-13.24 -195.348,-39.33 -59.758,-25.31 -113.356,-61.53 -159.473,-107.52 -46.043,-46.09 -82.207,-99.718 -107.433,-159.547 -26.219,-61.808 -39.493,-127.535 -39.493,-195.171 0,-67.793 13.274,-133.551 39.497,-195.332 25.222,-59.707 61.386,-113.399 107.417,-159.45 46.129,-46.039 99.727,-82.25 159.481,-107.519 18.727,-7.93 37.805,-14.653 57.18,-20.18 0.172,-0.062 0.324,-0.109 0.5,-0.172 9.718,-3.051 19.597,-5.449 29.527,-7.41 35.258,-7.73 71.391,-11.66 108.145,-11.66 22.375,0 44.542,1.492 66.433,4.359 0.059,0 0.109,0 0.16,0 12.754,0.742 21.739,2.684 27.657,4.492 34.546,6.559 68.32,16.739 100.988,30.571 59.75,25.269 113.399,61.48 159.449,107.519 l -3.56,3.551 3.56,-3.551 c 46.09,46.051 82.23,99.743 107.57,159.45 26.1,61.781 39.35,127.539 39.35,195.332 0,67.636 -13.25,133.363 -39.34,195.187" /><path
         id="path24"
         style="fill:#ffffff;fill-opacity:1;fill-rule:nonzero;stroke:none"
         d="m 128.637,659.395 c 5.777,0.761 10.738,0.703 14.871,-0.157 4.144,-0.879 7.64,-2.578 10.5,-5.078 2.867,-2.539 5.137,-5.898 6.816,-10.113 1.676,-4.184 2.903,-9.242 3.68,-15.18 0.652,-5.058 0.726,-9.746 0.203,-14.023 -0.527,-4.293 -1.797,-8.067 -3.832,-11.367 -2.023,-3.258 -4.852,-5.973 -8.473,-8.106 -3.632,-2.109 -12.257,-3.945 -12.257,-3.945 -0.829,-0.172 -2.176,-0.391 -3,-0.504 l -44.4614,-5.824 c -0.8242,-0.094 -1.5391,-0.86 -1.5898,-1.715 l -0.375,-6.543 c -0.0547,-0.844 -0.7657,-1.621 -1.6094,-1.742 l -1.961,-0.235 c -0.8281,-0.117 -1.5937,0.473 -1.7148,1.313 l -3.9102,29.937 c -0.1015,0.84 0.4883,1.606 1.3243,1.723 l 1.957,0.254 c 0.8359,0.094 1.7226,-0.473 1.9922,-1.25 l 2.0273,-6.137 c 0.2578,-0.801 1.1602,-1.348 1.9961,-1.25 l 49.7617,6.508 c 6.09,0.801 10.652,3.238 13.703,7.34 3.043,4.101 4.098,9.75 3.156,16.933 -0.972,7.422 -3.496,12.579 -7.578,15.469 -4.074,2.891 -16.465,2.793 -16.465,2.793 -0.839,0 -2.203,-0.113 -3.027,-0.215 l -45.164,-5.918 c -0.8359,-0.097 -1.5586,-0.855 -1.5976,-1.718 l -0.3867,-6.524 c -0.0508,-0.859 -0.7618,-1.617 -1.6016,-1.734 l -1.957,-0.254 c -0.836,-0.121 -1.6016,0.484 -1.711,1.328 l -3.5039,26.836 c -0.1133,0.84 0.4727,1.598 1.3047,1.715 l 1.9609,0.254 c 0.8282,0.121 1.7227,-0.45 1.9922,-1.25 l 2.0508,-6.25 c 0.2578,-0.782 1.1563,-1.344 1.9805,-1.25 l 44.8987,5.879" /><path
         id="path26"
         style="fill:#ffffff;fill-opacity:1;fill-rule:nonzero;stroke:none"
         d="m 74.9609,729.023 c 0.0625,0.84 0.7071,1.875 1.4258,2.286 l 62.8013,37.421 -52.5513,3.868 c -0.8359,0.058 -1.707,-0.547 -1.9258,-1.344 l -1.6914,-6.234 c -0.2187,-0.801 -1.0859,-1.407 -1.9218,-1.344 l -1.9727,0.133 c -0.8281,0.078 -1.4687,0.8 -1.4023,1.64 l 1.9531,25.821 c 0.0703,0.839 0.7969,1.464 1.6445,1.406 l 1.9649,-0.156 c 0.8398,-0.055 1.5976,-0.801 1.6914,-1.622 l 0.7382,-6.519 c 0.0899,-0.844 0.8516,-1.566 1.6875,-1.645 l 74.4217,-5.64 c 0.832,-0.063 1.473,-0.801 1.414,-1.645 l -0.562,-7.32 c -0.071,-0.844 -0.703,-1.875 -1.43,-2.309 l -72.5546,-42.539 61.1366,-4.629 c 0.832,-0.078 1.695,0.528 1.918,1.352 l 1.695,6.211 c 0.215,0.816 1.079,1.422 1.918,1.344 l 1.981,-0.133 c 0.824,-0.063 1.465,-0.785 1.406,-1.625 l -1.965,-25.836 c -0.062,-0.824 -0.804,-1.469 -1.636,-1.41 l -1.965,0.16 c -0.844,0.055 -1.61,0.797 -1.7,1.637 l -0.734,6.527 c -0.086,0.816 -0.851,1.559 -1.683,1.617 l -66.8989,5.078 c -0.8399,0.063 -1.7032,-0.547 -1.9219,-1.363 l -1.7149,-6.328 c -0.2109,-0.805 -1.0742,-1.43 -1.9179,-1.352 l -1.9649,0.141 c -0.8476,0.055 -1.4726,0.797 -1.4062,1.637 l 1.7226,22.714" /><path
         id="path28"
         style="fill:#ffffff;fill-opacity:1;fill-rule:nonzero;stroke:none"
         d="m 100.746,868.398 c 0.82,-0.203 1.442,-1.054 1.399,-1.882 l -0.352,-6.446 c -0.051,-0.843 0.574,-1.711 1.391,-1.902 l 65.097,-16.25 c 0.817,-0.219 1.77,0.254 2.117,0.992 l 2.715,5.86 c 0.356,0.761 1.305,1.222 2.125,1.015 l 1.926,-0.476 c 0.809,-0.223 1.316,-1.047 1.102,-1.844 l -7.313,-29.32 c -0.207,-0.801 -1.043,-1.305 -1.844,-1.094 l -1.925,0.492 c -0.813,0.191 -1.442,1.051 -1.395,1.891 l 0.356,6.425 c 0.043,0.84 -0.586,1.684 -1.399,1.899 l -65.0976,16.25 c -0.8046,0.211 -1.7578,-0.238 -2.1132,-0.996 l -2.7266,-5.864 c -0.3516,-0.742 -1.3008,-1.21 -2.1172,-1.011 l -1.918,0.504 c -0.8125,0.175 -1.3164,0.996 -1.1093,1.82 l 7.3125,29.297 c 0.207,0.828 1.0429,1.312 1.8515,1.109 l 1.9179,-0.469" /><path
         id="path30"
         style="fill:#ffffff;fill-opacity:1;fill-rule:nonzero;stroke:none"
         d="m 202.75,917.805 c 0.594,-0.59 0.824,-1.7 0.492,-2.477 l -3.531,-8.305 c -0.332,-0.765 -1.277,-1.347 -2.117,-1.304 l -79.02,5.344 c -0.836,0.058 -1.933,-0.461 -2.418,-1.125 l -2.902,-3.985 c -0.5,-0.68 -1.524,-0.965 -2.301,-0.64 l -1.828,0.789 c -0.762,0.304 -1.133,1.214 -0.801,1.992 l 10.84,25.472 c 0.328,0.766 1.227,1.129 1.992,0.801 l 1.828,-0.777 c 0.778,-0.313 1.278,-1.258 1.125,-2.09 l -0.929,-5.078 c -0.149,-0.832 0.398,-1.547 1.238,-1.621 l 63.469,-4.914 -46.61,44.597 c -0.597,0.563 -1.48,0.457 -1.961,-0.218 l -3.492,-5.133 c -0.469,-0.699 -1.484,-1 -2.261,-0.672 l -1.825,0.773 c -0.765,0.329 -1.133,1.235 -0.8,2.004 l 9.765,22.938 c 0.328,0.773 1.231,1.133 2,0.804 l 1.817,-0.781 c 0.777,-0.332 1.269,-1.258 1.089,-2.078 l -1.234,-5.976 c -0.172,-0.805 0.18,-1.969 0.785,-2.543 l 57.59,-55.797" /><path
         id="path32"
         style="fill:#ffffff;fill-opacity:1;fill-rule:nonzero;stroke:none"
         d="m 361.504,1134.65 c 1.902,0.5 3.883,1.25 5.937,2.23 2.055,0.96 3.719,1.94 5.004,2.87 4.547,3.38 7.383,6.98 8.508,10.83 1.113,3.85 0.317,7.62 -2.39,11.27 -1.606,2.17 -3.469,3.69 -5.571,4.53 -2.097,0.81 -4.324,1.25 -6.687,1.28 -2.356,0.05 -4.801,-0.16 -7.321,-0.64 -2.519,-0.47 -5.043,-0.89 -7.539,-1.27 -3.793,-0.5 -7.222,-0.96 -10.3,-1.36 -3.082,-0.39 -5.903,-0.43 -8.45,-0.12 -2.554,0.28 -4.898,1.05 -7.054,2.28 -2.157,1.23 -4.2,3.17 -6.149,5.81 -2.133,2.88 -3.414,5.88 -3.824,9 -0.43,3.09 -0.082,6.25 1.016,9.38 1.097,3.14 2.906,6.24 5.441,9.32 2.547,3.06 5.707,5.99 9.492,8.8 1.406,1.04 3,2.08 4.778,3.08 1.773,1.02 3.589,1.99 5.441,2.92 1.852,0.9 3.684,1.75 5.508,2.5 1.82,0.75 3.5,1.28 3.5,1.28 0.804,0.24 1.621,0.31 1.836,0.14 0.211,-0.17 0.722,-0.92 1.133,-1.63 l 6.359,-11.2 c 0.41,-0.73 0.187,-1.74 -0.481,-2.24 l -4.183,-3.09 c -0.664,-0.49 -1.754,-0.46 -2.395,0.08 l -7.797,6.53 c -1.371,-0.03 -2.98,-0.4 -4.828,-1.12 -1.843,-0.72 -3.863,-1.88 -6.047,-3.49 -3.91,-2.9 -6.343,-6.11 -7.293,-9.64 -0.957,-3.53 -0.25,-6.91 2.129,-10.11 1.516,-2.07 3.149,-3.48 4.922,-4.26 1.762,-0.77 3.637,-1.17 5.637,-1.18 1.996,-0.02 4.07,0.19 6.215,0.64 2.14,0.44 4.359,0.87 6.64,1.28 3.149,0.43 6.434,0.94 9.868,1.55 3.414,0.58 6.75,0.82 9.976,0.67 3.223,-0.13 6.258,-0.79 9.113,-1.97 2.844,-1.16 5.293,-3.27 7.344,-6.32 2.617,-3.92 4.094,-7.67 4.442,-11.23 0.351,-3.56 -0.121,-6.97 -1.438,-10.22 -1.312,-3.24 -3.406,-6.39 -6.273,-9.4 -2.875,-3.02 -6.243,-5.95 -10.078,-8.8 -3.473,-2.56 -7.09,-4.77 -10.879,-6.63 -3.774,-1.85 -8.696,-3.85 -8.696,-3.85 -0.777,-0.31 -1.566,-0.41 -1.738,-0.2 -0.191,0.16 -0.684,0.93 -1.102,1.65 l -6.429,11.12 c -0.422,0.74 -0.215,1.75 0.461,2.24 l 4.187,3.1 c 0.668,0.5 1.754,0.46 2.391,-0.08 l 7.664,-6.33" /><path
         id="path34"
         style="fill:#ffffff;fill-opacity:1;fill-rule:nonzero;stroke:none"
         d="m 421.645,1258.36 c 0.398,-0.75 0.187,-1.78 -0.454,-2.31 l -5.015,-4.07 c -0.633,-0.53 -0.856,-1.57 -0.453,-2.29 l 31.761,-59.13 c 0.403,-0.73 1.379,-1.11 2.172,-0.87 l 6.164,1.93 c 0.805,0.24 1.778,-0.15 2.176,-0.9 l 0.934,-1.74 c 0.402,-0.73 0.117,-1.66 -0.614,-2.06 l -26.601,-14.29 c -0.738,-0.4 -1.664,-0.12 -2.067,0.61 l -0.933,1.75 c -0.41,0.73 -0.192,1.78 0.461,2.3 l 4.996,4.08 c 0.664,0.52 0.863,1.55 0.469,2.3 l -31.774,59.09 c -0.387,0.75 -1.375,1.15 -2.168,0.89 l -6.156,-1.91 c -0.797,-0.26 -1.785,0.15 -2.18,0.87 l -0.937,1.75 c -0.395,0.75 -0.117,1.68 0.617,2.07 l 26.602,14.3 c 0.734,0.39 1.668,0.1 2.062,-0.63 l 0.938,-1.74" /><path
         id="path36"
         style="fill:#ffffff;fill-opacity:1;fill-rule:nonzero;stroke:none"
         d="m 454.688,1277.67 c 0.179,0.49 0.972,1.11 1.753,1.39 l 62.09,22.59 c 0.793,0.28 1.762,0.42 2.16,0.27 0.399,-0.13 0.981,-0.87 1.297,-1.65 l 5.352,-13.29 c 0.316,-0.77 -0.074,-1.64 -0.863,-1.93 l -4.997,-1.82 c -0.792,-0.28 -1.824,0.04 -2.292,0.75 l -4.368,6.47 c -0.468,0.69 -1.507,1.07 -2.308,0.83 l -6.5,-1.93 c -0.801,-0.23 -2.102,-0.66 -2.891,-0.94 l -6.308,-2.29 23.304,-64.18 c 0.297,-0.78 1.199,-1.32 2.031,-1.17 l 6.368,1.02 c 0.836,0.13 1.738,-0.41 2.027,-1.2 l 0.684,-1.87 c 0.289,-0.79 -0.129,-1.66 -0.914,-1.94 l -28.379,-10.32 c -0.789,-0.3 -1.668,0.13 -1.954,0.92 l -0.671,1.87 c -0.293,0.77 0.062,1.77 0.773,2.19 l 5.547,3.32 c 0.719,0.43 1.074,1.42 0.781,2.21 l -23.344,64.17 -6.293,-2.32 c -0.796,-0.28 -2.066,-0.79 -2.843,-1.14 l -6.211,-2.7 c -0.77,-0.32 -1.332,-1.29 -1.242,-2.13 l 0.808,-7.75 c 0.098,-0.83 -0.476,-1.75 -1.269,-2.04 l -5,-1.81 c -0.789,-0.29 -1.645,0.13 -1.907,0.93 l -4.265,13.16 c -0.254,0.8 -0.324,1.84 -0.156,2.33" /><path
         id="path38"
         style="fill:#ffffff;fill-opacity:1;fill-rule:nonzero;stroke:none"
         d="m 586.559,1305.43 -6.356,-35.3 23.387,4.41 z m 20.164,-36.51 -27.739,-5.24 -4.277,-25.42 c -0.137,-0.81 0.43,-1.51 1.27,-1.53 l 5.746,-0.1 c 0.84,-0.02 1.656,-0.7 1.8,-1.54 l 0.379,-1.95 c 0.145,-0.81 -0.402,-1.62 -1.211,-1.77 l -24.277,-4.58 c -0.82,-0.15 -1.621,0.39 -1.773,1.21 l -0.368,1.96 c -0.16,0.82 0.344,1.75 1.122,2.08 l 4.96,2.11 c 0.782,0.32 1.532,1.27 1.692,2.08 l 15.312,79.8 c 0.161,0.82 0.969,1.62 1.786,1.78 l 10.636,2.01 c 0.824,0.14 1.836,-0.31 2.246,-1.05 l 39.489,-69.39 c 0.41,-0.73 1.441,-1.34 2.277,-1.36 l 5.266,-0.18 c 0.851,-0.03 1.66,-0.71 1.808,-1.54 l 0.371,-1.94 c 0.157,-0.82 -0.39,-1.63 -1.222,-1.77 l -27.782,-5.27 c -0.82,-0.13 -1.632,0.4 -1.789,1.21 l -0.355,1.96 c -0.16,0.83 0.344,1.77 1.113,2.1 l 4.973,2.11 c 0.769,0.32 1.078,1.19 0.672,1.93 l -12.125,22.29" /><path
         id="path40"
         style="fill:#ffffff;fill-opacity:1;fill-rule:nonzero;stroke:none"
         d="m 683.551,1251.81 c 1.832,-0.7 3.867,-1.27 6.101,-1.7 2.227,-0.42 4.149,-0.64 5.739,-0.63 5.664,0.02 10.078,1.25 13.261,3.7 3.172,2.45 4.754,5.95 4.743,10.5 -0.016,2.71 -0.625,5.02 -1.829,6.92 -1.207,1.93 -2.75,3.59 -4.632,5.02 -1.871,1.43 -3.969,2.68 -6.293,3.81 -2.305,1.1 -4.594,2.25 -6.828,3.45 -3.352,1.8 -6.395,3.46 -9.11,4.98 -2.711,1.49 -5.019,3.11 -6.894,4.87 -1.879,1.75 -3.329,3.75 -4.332,6.03 -1.004,2.27 -1.524,5.03 -1.539,8.3 -0.012,3.6 0.734,6.77 2.238,9.53 1.5,2.76 3.621,5.08 6.371,6.96 2.734,1.91 6.031,3.34 9.898,4.3 3.864,0.98 8.145,1.47 12.852,1.5 1.754,0 3.641,-0.1 5.683,-0.33 2.04,-0.23 4.071,-0.53 6.102,-0.88 2.043,-0.35 4.016,-0.76 5.926,-1.22 1.914,-0.48 3.586,-1.05 3.586,-1.05 0.789,-0.27 1.496,-0.72 1.566,-0.96 0.055,-0.27 0.035,-1.17 -0.055,-2.01 l -1.496,-12.77 c -0.093,-0.84 -0.859,-1.53 -1.695,-1.53 l -5.211,-0.01 c -0.832,-0.02 -1.683,0.66 -1.883,1.46 l -2.429,9.88 c -1.125,0.79 -2.649,1.45 -4.563,1.96 -1.914,0.5 -4.223,0.76 -6.933,0.75 -4.875,-0.01 -8.731,-1.18 -11.586,-3.46 -2.864,-2.29 -4.286,-5.42 -4.27,-9.42 0.016,-2.55 0.5,-4.67 1.465,-6.35 0.965,-1.65 2.242,-3.09 3.848,-4.28 1.601,-1.19 3.394,-2.24 5.39,-3.14 1.996,-0.92 4.039,-1.89 6.117,-2.92 2.801,-1.49 5.75,-3.02 8.875,-4.57 3.11,-1.54 5.926,-3.32 8.446,-5.34 2.519,-2.02 4.586,-4.36 6.187,-6.98 1.606,-2.62 2.332,-5.78 2.188,-9.45 -0.215,-4.71 -1.231,-8.59 -3.051,-11.68 -1.816,-3.08 -4.215,-5.54 -7.191,-7.39 -2.985,-1.86 -6.532,-3.14 -10.637,-3.88 -4.102,-0.74 -8.551,-1.11 -13.328,-1.12 -4.309,-0.03 -8.532,0.33 -12.684,1.08 -4.144,0.73 -9.297,2.02 -9.297,2.02 -0.801,0.22 -1.504,0.59 -1.531,0.85 -0.039,0.25 0.016,1.16 0.102,2 l 1.39,12.78 c 0.094,0.82 0.856,1.51 1.688,1.51 l 5.207,0.03 c 0.84,0 1.695,-0.66 1.894,-1.46 l 2.434,-9.66" /><path
         id="path42"
         style="fill:#ffffff;fill-opacity:1;fill-rule:nonzero;stroke:none"
         d="m 907.887,1278.16 c -2.211,7.01 -7.071,11.73 -14.582,14.16 -7.586,2.46 -14.325,1.57 -20.215,-2.64 -5.879,-4.21 -10.75,-12.24 -14.582,-24.08 -3.899,-11.99 -4.754,-21.49 -2.574,-28.48 2.175,-7.01 7.054,-11.73 14.632,-14.18 7.582,-2.46 14.321,-1.58 20.215,2.62 5.891,4.23 10.758,12.25 14.594,24.1 3.883,11.98 4.723,21.48 2.512,28.5 z m -7.535,-60.28 c -9.122,-4.9 -19.907,-5.32 -32.34,-1.29 -6,1.95 -11.059,4.55 -15.199,7.83 -4.137,3.26 -7.282,7.13 -9.43,11.61 -2.153,4.47 -3.266,9.51 -3.34,15.11 -0.063,5.6 0.969,11.7 3.109,18.3 2.235,6.91 5.114,12.68 8.633,17.34 3.512,4.64 7.531,8.16 12.043,10.56 4.5,2.41 9.453,3.71 14.844,3.94 5.391,0.21 11.039,-0.62 16.965,-2.55 5.918,-1.91 10.961,-4.51 15.129,-7.8 4.175,-3.27 7.355,-7.17 9.539,-11.71 2.175,-4.51 3.308,-9.61 3.41,-15.26 0.094,-5.64 -0.945,-11.8 -3.106,-18.48 -4.371,-13.53 -11.129,-22.72 -20.257,-27.6" /><path
         id="path44"
         style="fill:#ffffff;fill-opacity:1;fill-rule:nonzero;stroke:none"
         d="m 949.547,1193.25 c 1.266,-1.5 2.773,-2.99 4.523,-4.43 1.754,-1.46 3.328,-2.55 4.735,-3.31 4.968,-2.7 9.449,-3.75 13.402,-3.13 3.961,0.61 7.031,2.93 9.203,6.92 1.293,2.39 1.875,4.7 1.738,6.96 -0.136,2.25 -0.691,4.45 -1.644,6.62 -0.969,2.15 -2.191,4.26 -3.691,6.35 -1.508,2.09 -2.954,4.18 -4.34,6.31 -2.067,3.2 -3.926,6.13 -5.586,8.75 -1.657,2.62 -2.899,5.15 -3.703,7.6 -0.809,2.44 -1.11,4.88 -0.899,7.36 0.211,2.48 1.102,5.14 2.653,8.02 1.714,3.14 3.898,5.59 6.542,7.27 2.637,1.71 5.618,2.73 8.93,3.06 3.32,0.33 6.895,0 10.754,-1.01 3.856,-1 7.846,-2.62 11.976,-4.86 1.55,-0.84 3.16,-1.84 4.82,-3.03 1.69,-1.17 3.33,-2.42 4.94,-3.69 1.61,-1.3 3.15,-2.61 4.61,-3.94 1.45,-1.33 2.64,-2.64 2.64,-2.64 0.55,-0.62 0.97,-1.33 0.89,-1.6 -0.06,-0.26 -0.51,-1.04 -1,-1.72 l -7.45,-10.48 c -0.49,-0.69 -1.5,-0.92 -2.23,-0.54 l -4.56,2.51 c -0.74,0.38 -1.17,1.38 -0.96,2.2 l 2.62,9.83 c -0.6,1.23 -1.61,2.53 -3.04,3.9 -1.44,1.36 -3.35,2.7 -5.729,3.99 -4.281,2.31 -8.214,3.17 -11.832,2.53 -3.605,-0.63 -6.355,-2.7 -8.257,-6.2 -1.223,-2.24 -1.809,-4.33 -1.77,-6.26 0.043,-1.93 0.473,-3.8 1.305,-5.62 0.84,-1.8 1.91,-3.58 3.218,-5.35 1.317,-1.75 2.641,-3.58 3.961,-5.49 1.727,-2.65 3.586,-5.41 5.575,-8.26 1.992,-2.86 3.605,-5.78 4.843,-8.76 1.231,-2.99 1.922,-6.02 2.075,-9.09 0.14,-3.08 -0.735,-6.2 -2.621,-9.34 -2.465,-4.02 -5.219,-6.95 -8.301,-8.78 -3.078,-1.81 -6.379,-2.82 -9.875,-3.01 -3.5,-0.19 -7.231,0.38 -11.188,1.72 -3.941,1.32 -8.019,3.12 -12.222,5.41 -3.786,2.05 -7.313,4.4 -10.594,7.04 -3.289,2.66 -7.172,6.25 -7.172,6.25 -0.613,0.59 -1.039,1.25 -0.938,1.49 0.094,0.25 0.555,1.02 1.04,1.7 l 7.371,10.55 c 0.48,0.67 1.476,0.9 2.218,0.51 l 4.571,-2.49 c 0.738,-0.39 1.168,-1.39 0.953,-2.19 l -2.504,-9.63" /><path
         id="path46"
         style="fill:#ffffff;fill-opacity:1;fill-rule:nonzero;stroke:none"
         d="m 1036.71,1138.26 c -0.52,-0.67 -0.4,-1.62 0.26,-2.15 l 10.31,-8.08 c 0.66,-0.52 1.77,-1.34 2.46,-1.8 l 5.47,-3.78 c 0.7,-0.47 1.8,-0.43 2.45,0.09 l 6.71,5.42 c 0.65,0.53 1.73,0.53 2.38,0.02 l 4.19,-3.3 c 0.67,-0.5 0.77,-1.45 0.23,-2.09 l -8.92,-10.59 c -0.55,-0.63 -1.22,-1.39 -1.51,-1.66 -0.31,-0.27 -1.09,-0.07 -1.75,0.45 l -44.66,35.01 c -0.66,0.52 -0.78,1.48 -0.25,2.14 l 1.21,1.55 c 0.52,0.66 1.57,0.89 2.3,0.5 l 5.74,-2.94 c 0.74,-0.38 1.78,-0.16 2.3,0.5 l 41.39,52.8 c 0.51,0.66 0.49,1.72 -0.06,2.35 l -4.24,4.87 c -0.54,0.63 -0.58,1.7 -0.06,2.36 l 1.22,1.54 c 0.52,0.66 1.48,0.79 2.14,0.28 l 23.67,-18.57 c 0.66,-0.52 0.78,-1.48 0.27,-2.14 l -1.23,-1.55 c -0.52,-0.66 -1.55,-0.89 -2.29,-0.51 l -5.74,2.95 c -0.75,0.39 -1.79,0.16 -2.3,-0.5 l -41.69,-53.17" /><path
         id="path48"
         style="fill:#ffffff;fill-opacity:1;fill-rule:nonzero;stroke:none"
         d="m 1172.98,1092.3 c 1.68,7.15 -0.1,13.69 -5.32,19.61 -5.27,5.97 -11.52,8.65 -18.73,8.03 -7.22,-0.63 -15.5,-5.06 -24.83,-13.29 -9.46,-8.35 -15.03,-16.08 -16.72,-23.2 -1.7,-7.13 0.08,-13.68 5.36,-19.67 5.27,-5.98 11.52,-8.65 18.73,-8.03 7.23,0.63 15.5,5.06 24.83,13.29 9.46,8.35 15.02,16.09 16.68,23.26 z m -37.19,-48.04 c -10.34,0.44 -19.83,5.57 -28.48,15.38 -4.16,4.73 -7.2,9.54 -9.09,14.47 -1.89,4.91 -2.62,9.84 -2.2,14.78 0.43,4.95 2.03,9.86 4.82,14.72 2.8,4.84 6.8,9.58 12.01,14.16 5.45,4.82 10.87,8.32 16.26,10.52 5.39,2.21 10.64,3.19 15.74,2.96 5.1,-0.23 10.03,-1.63 14.79,-4.19 4.75,-2.55 9.18,-6.16 13.29,-10.83 4.12,-4.66 7.13,-9.46 9.05,-14.4 1.93,-4.96 2.66,-9.95 2.24,-14.94 -0.43,-5.01 -2.04,-9.96 -4.84,-14.88 -2.79,-4.91 -6.83,-9.67 -12.09,-14.34 -10.66,-9.38 -21.15,-13.85 -31.5,-13.41" /><path
         id="path50"
         style="fill:#ffffff;fill-opacity:1;fill-rule:nonzero;stroke:none"
         d="m 1207.28,991.617 c 0.64,0.531 0.81,1.563 0.38,2.301 l -9.09,15.442 -29.9,-18.02 9.78,-16.461 c 0.42,-0.711 1.16,-1.863 1.63,-2.559 l 3.75,-5.496 c 0.48,-0.711 1.51,-1.051 2.3,-0.797 l 8.17,2.711 c 0.79,0.246 1.8,-0.125 2.22,-0.847 l 2.79,-4.676 c 0.42,-0.711 0.17,-1.641 -0.57,-2.035 l -12.14,-6.66 c -0.73,-0.399 -1.64,-0.844 -2.02,-0.993 -0.37,-0.14 -1.03,0.336 -1.45,1.051 l -31.43,52.902 c -0.42,0.71 -0.18,1.66 0.55,2.08 l 1.69,1.02 c 0.72,0.44 1.76,0.28 2.32,-0.36 l 4.29,-4.83 c 0.55,-0.62 1.6,-0.78 2.32,-0.35 l 57.69,34.26 c 0.71,0.43 1.07,1.42 0.79,2.21 l -2.19,6.06 c -0.28,0.8 0.08,1.79 0.79,2.22 l 1.71,1.01 c 0.72,0.42 1.66,0.19 2.08,-0.53 l 29.97,-50.434 c 0.42,-0.719 0.74,-1.664 0.69,-2.133 -0.03,-0.437 -0.65,-1.18 -1.36,-1.617 l -12.05,-7.731 c -0.7,-0.457 -1.63,-0.242 -2.05,0.493 l -2.73,4.578 c -0.42,0.711 -0.28,1.777 0.33,2.336 l 6.53,6.168 c 0.61,0.58 0.8,1.66 0.42,2.4 l -3.11,6.04 c -0.38,0.74 -1.05,1.93 -1.48,2.65 l -8.81,14.93 -26.43,-15.78 9.11,-15.365 c 0.42,-0.719 1.41,-1.082 2.2,-0.778 l 6.03,2.274 c 0.78,0.285 1.77,-0.071 2.2,-0.797 l 2.29,-3.844 c 0.42,-0.738 0.18,-1.668 -0.53,-2.101 l -19.5,-11.579 c -0.73,-0.429 -1.66,-0.187 -2.1,0.532 l -2.28,3.851 c -0.43,0.715 -0.25,1.766 0.38,2.297 l 5.82,4.957" /><path
         id="path52"
         style="fill:#ffffff;fill-opacity:1;fill-rule:nonzero;stroke:none"
         d="m 218.668,1027.36 c -0.77,0.34 -1.777,0.03 -2.238,-0.67 l -9.848,-14.97 29.371,-18.88 10.449,16.04 c 0.453,0.7 1.161,1.88 1.582,2.6 l 3.282,5.78 c 0.418,0.74 0.273,1.83 -0.321,2.42 l -6.011,6.15 c -0.598,0.58 -0.696,1.65 -0.246,2.35 l 2.976,4.57 c 0.461,0.69 1.391,0.88 2.082,0.4 l 11.324,-7.97 c 0.684,-0.48 1.481,-1.09 1.782,-1.37 0.293,-0.27 0.156,-1.08 -0.301,-1.78 l -33.598,-51.55 c -0.457,-0.683 -1.41,-0.886 -2.101,-0.429 l -1.664,1.078 c -0.7,0.461 -1.016,1.465 -0.7,2.238 l 2.442,5.985 c 0.312,0.773 0,1.777 -0.707,2.242 l -56.207,36.636 c -0.703,0.45 -1.754,0.32 -2.328,-0.27 l -4.481,-4.64 c -0.59,-0.6 -1.641,-0.71 -2.348,-0.25 l -1.66,1.08 c -0.687,0.46 -0.894,1.4 -0.437,2.11 l 32.035,49.13 c 0.453,0.7 1.172,1.41 1.598,1.57 0.414,0.16 1.339,-0.07 2.058,-0.5 l 12.262,-7.41 c 0.711,-0.43 0.926,-1.36 0.469,-2.06 l -2.907,-4.46 c -0.461,-0.7 -1.48,-1.03 -2.261,-0.74 l -8.411,3.13 c -0.785,0.3 -1.832,-0.02 -2.335,-0.69 l -4.04,-5.43 c -0.5,-0.68 -1.285,-1.8 -1.742,-2.5 l -9.511,-14.5 25.843,-16.76 9.774,14.97 c 0.453,0.69 0.324,1.74 -0.281,2.3 l -4.696,4.42 c -0.605,0.57 -0.726,1.62 -0.277,2.32 l 2.449,3.75 c 0.457,0.71 1.41,0.91 2.109,0.45 l 19.008,-12.38 c 0.703,-0.46 0.91,-1.41 0.449,-2.11 l -2.457,-3.77 c -0.457,-0.7 -1.457,-0.99 -2.23,-0.66 l -7,3.03" /><path
         id="path54"
         style="fill:#ffffff;fill-opacity:1;fill-rule:nonzero;stroke:none"
         d="m 1287.71,925.684 c 0.27,-0.782 0.09,-1.993 -0.4,-2.668 l -42.83,-59.317 49.83,17.356 c 0.79,0.281 1.35,1.183 1.22,2.011 l -0.92,6.387 c -0.12,0.844 0.44,1.731 1.22,2.004 l 1.88,0.641 c 0.79,0.293 1.67,-0.149 1.93,-0.946 l 8.47,-24.453 c 0.28,-0.789 -0.16,-1.668 -0.94,-1.957 l -1.87,-0.625 c -0.79,-0.273 -1.78,0.082 -2.21,0.813 l -3.26,5.711 c -0.42,0.714 -1.41,1.093 -2.2,0.816 l -70.54,-24.406 c -0.79,-0.274 -1.66,0.16 -1.93,0.937 l -2.41,6.965 c -0.27,0.801 -0.09,1.996 0.4,2.68 l 49.71,67.918 -57.99,-20.074 c -0.79,-0.286 -1.33,-1.184 -1.22,-2.012 l 0.93,-6.387 c 0.12,-0.848 -0.44,-1.734 -1.23,-2.008 l -1.87,-0.636 c -0.79,-0.297 -1.67,0.144 -1.94,0.925 l -8.46,24.481 c -0.28,0.777 0.15,1.672 0.94,1.945 l 1.87,0.625 c 0.79,0.293 1.78,-0.086 2.19,-0.812 l 3.28,-5.7 c 0.42,-0.726 1.41,-1.097 2.2,-0.824 l 63.4,21.938 c 0.79,0.265 1.34,1.16 1.23,2 l -0.96,6.488 c -0.12,0.828 0.43,1.738 1.22,2.012 l 1.88,0.664 c 0.79,0.258 1.66,-0.16 1.92,-0.953 l 7.46,-21.539" /><path
         id="path56"
         style="fill:#ffffff;fill-opacity:1;fill-rule:nonzero;stroke:none"
         d="m 1243.68,797.363 c -0.44,-1.894 -0.73,-3.98 -0.84,-6.269 -0.12,-2.266 -0.06,-4.199 0.16,-5.781 0.81,-5.586 2.64,-9.786 5.51,-12.594 2.86,-2.832 6.55,-3.91 11.05,-3.266 2.69,0.391 4.88,1.309 6.62,2.793 1.72,1.445 3.16,3.203 4.31,5.258 1.16,2.047 2.12,4.312 2.9,6.758 0.78,2.437 1.6,4.859 2.46,7.246 1.34,3.57 2.57,6.812 3.69,9.707 1.11,2.906 2.4,5.387 3.87,7.515 1.48,2.09 3.27,3.813 5.38,5.118 2.1,1.289 4.78,2.187 8.02,2.66 3.55,0.504 6.79,0.211 9.74,-0.903 2.94,-1.093 5.54,-2.886 7.78,-5.332 2.25,-2.46 4.12,-5.527 5.62,-9.218 1.5,-3.692 2.59,-7.871 3.25,-12.539 0.26,-1.739 0.41,-3.614 0.46,-5.645 0.05,-2.051 0.05,-4.101 -0.02,-6.172 -0.07,-2.066 -0.21,-4.082 -0.4,-6.031 -0.21,-1.977 -0.54,-3.715 -0.54,-3.715 -0.15,-0.816 -0.49,-1.582 -0.74,-1.68 -0.26,-0.097 -1.14,-0.214 -1.98,-0.214 l -12.87,-0.293 c -0.84,-0.02 -1.62,0.644 -1.74,1.488 l -0.74,5.133 c -0.11,0.84 0.41,1.758 1.2,2.09 l 9.44,3.769 c 0.63,1.215 1.07,2.797 1.31,4.766 0.25,1.972 0.17,4.297 -0.22,6.996 -0.69,4.801 -2.37,8.472 -5.02,10.996 -2.67,2.516 -5.97,3.473 -9.92,2.906 -2.52,-0.367 -4.54,-1.133 -6.07,-2.32 -1.53,-1.195 -2.77,-2.66 -3.72,-4.399 -0.96,-1.738 -1.75,-3.687 -2.38,-5.781 -0.62,-2.09 -1.3,-4.258 -2.02,-6.441 -1.11,-2.992 -2.22,-6.133 -3.3,-9.418 -1.11,-3.297 -2.48,-6.328 -4.14,-9.121 -1.66,-2.774 -3.68,-5.133 -6.05,-7.086 -2.39,-1.957 -5.4,-3.125 -9.06,-3.481 -4.69,-0.445 -8.69,0.024 -11.99,1.407 -3.3,1.386 -6.06,3.418 -8.31,6.117 -2.25,2.691 -4.02,6.035 -5.31,10 -1.3,3.941 -2.29,8.297 -2.97,13.023 -0.61,4.262 -0.84,8.496 -0.68,12.719 0.16,4.215 0.73,9.469 0.73,9.469 0.09,0.84 0.37,1.601 0.63,1.664 0.26,0.078 1.14,0.133 1.99,0.172 l 12.85,0.371 c 0.84,0.039 1.62,-0.625 1.73,-1.446 l 0.75,-5.156 c 0.12,-0.84 -0.42,-1.777 -1.19,-2.09 l -9.23,-3.75" /><path
         id="path58"
         style="fill:#ffffff;fill-opacity:1;fill-rule:nonzero;stroke:none"
         d="m 1324.23,684.34 c -0.85,0 -1.67,0.664 -1.82,1.48 l -1.26,6.352 c -0.16,0.797 -0.98,1.48 -1.8,1.48 l -67.1,-0.293 c -0.85,0 -1.66,-0.683 -1.82,-1.504 l -1.18,-6.343 c -0.15,-0.824 -0.96,-1.504 -1.81,-1.504 l -1.97,-0.024 c -0.85,0 -1.53,0.688 -1.54,1.528 l -0.13,30.191 c -0.01,0.844 0.69,1.543 1.52,1.543 h 1.97 c 0.85,0 1.66,-0.66 1.83,-1.484 l 1.25,-6.344 c 0.15,-0.805 0.97,-1.488 1.81,-1.469 l 67.1,0.274 c 0.84,0 1.65,0.683 1.8,1.504 l 1.18,6.347 c 0.16,0.844 0.98,1.504 1.82,1.504 l 1.97,0.02 c 0.85,0 1.53,-0.68 1.53,-1.524 l 0.14,-30.191 c 0,-0.84 -0.68,-1.528 -1.52,-1.528 l -1.97,-0.015" /><path
         id="path60"
         style="fill:#ffffff;fill-opacity:1;fill-rule:nonzero;stroke:none"
         d="m 1247.45,633.242 c -0.99,-1.695 -1.87,-3.609 -2.66,-5.762 -0.77,-2.128 -1.28,-3.984 -1.53,-5.562 -0.88,-5.59 -0.36,-10.141 1.55,-13.676 1.9,-3.515 5.1,-5.644 9.6,-6.347 2.69,-0.426 5.06,-0.196 7.14,0.703 2.07,0.863 3.96,2.148 5.68,3.75 1.71,1.64 3.29,3.496 4.75,5.605 1.46,2.133 2.95,4.184 4.48,6.215 2.34,3.008 4.46,5.738 6.38,8.199 1.92,2.442 3.89,4.434 5.92,6.02 2.03,1.597 4.23,2.691 6.64,3.316 2.4,0.645 5.21,0.703 8.44,0.195 3.56,-0.546 6.58,-1.796 9.05,-3.71 2.49,-1.93 4.45,-4.391 5.87,-7.403 1.42,-3.008 2.32,-6.504 2.66,-10.469 0.35,-3.964 0.15,-8.281 -0.58,-12.91 -0.26,-1.734 -0.68,-3.593 -1.23,-5.562 -0.54,-1.996 -1.16,-3.949 -1.83,-5.879 -0.67,-1.977 -1.39,-3.828 -2.16,-5.664 -0.77,-1.821 -1.6,-3.363 -1.6,-3.363 -0.39,-0.743 -0.93,-1.368 -1.2,-1.407 -0.28,-0.019 -1.15,0.157 -1.97,0.371 l -12.37,3.52 c -0.81,0.23 -1.36,1.09 -1.23,1.914 l 0.81,5.152 c 0.13,0.805 0.91,1.543 1.76,1.621 l 10.13,0.821 c 0.96,0.976 1.84,2.383 2.65,4.179 0.81,1.817 1.42,4.067 1.85,6.739 0.76,4.804 0.23,8.789 -1.57,11.996 -1.8,3.179 -4.67,5.094 -8.63,5.703 -2.51,0.406 -4.67,0.254 -6.48,-0.434 -1.81,-0.683 -3.42,-1.718 -4.85,-3.101 -1.43,-1.391 -2.75,-3.008 -3.96,-4.828 -1.22,-1.817 -2.5,-3.692 -3.86,-5.586 -1.92,-2.52 -3.9,-5.196 -5.92,-8.028 -2.02,-2.832 -4.22,-5.332 -6.62,-7.5 -2.39,-2.144 -5.02,-3.808 -7.88,-4.976 -2.83,-1.172 -6.07,-1.391 -9.67,-0.668 -4.61,0.976 -8.3,2.597 -11.05,4.867 -2.74,2.301 -4.79,5.074 -6.15,8.301 -1.35,3.242 -2.06,6.929 -2.14,11.109 -0.06,4.16 0.27,8.613 1.01,13.344 0.67,4.254 1.7,8.379 3.09,12.34 1.39,3.965 3.49,8.847 3.49,8.847 0.32,0.782 0.81,1.387 1.09,1.387 0.25,0 1.14,-0.195 1.95,-0.406 l 12.39,-3.418 c 0.81,-0.219 1.36,-1.078 1.23,-1.914 l -0.8,-5.141 c -0.14,-0.84 -0.92,-1.562 -1.76,-1.64 l -9.91,-0.86" /><path
         id="path62"
         style="fill:#ffffff;fill-opacity:1;fill-rule:nonzero;stroke:none"
         d="m 342.016,201.172 c 0.757,-0.332 1.761,-0.07 2.23,0.629 L 378.789,251.43 314.477,215 c -0.731,-0.41 -1.86,-0.309 -2.512,0.219 l -2.57,2.09 c -0.649,0.519 -1.012,1.64 -0.797,2.441 l 18.609,69.449 -39.047,-42.539 c -0.597,-0.582 -0.683,-1.621 -0.191,-2.301 l 3.918,-5.32 c 0.5,-0.68 0.437,-1.73 -0.141,-2.359 l -1.332,-1.418 c -0.574,-0.614 -1.547,-0.672 -2.152,-0.063 l -19.039,17.731 c -0.614,0.57 -0.649,1.519 -0.082,2.148 l 1.351,1.453 c 0.567,0.598 1.617,0.739 2.328,0.309 l 5.493,-3.481 c 0.71,-0.429 1.777,-0.308 2.363,0.27 l 44.164,49.012 c 0.555,0.621 0.558,1.66 0.023,2.3 l -4.179,4.957 c -0.539,0.653 -0.547,1.704 -0.024,2.372 l 1.242,1.519 c 0.524,0.652 1.496,0.742 2.153,0.223 l 19.91,-16.184 c 0.648,-0.539 1.012,-1.637 0.797,-2.437 l -15.832,-61.129 54.5,29.687 c 0.73,0.41 1.875,0.289 2.511,-0.238 l 19.082,-15.512 c 0.653,-0.519 0.747,-1.48 0.227,-2.121 L 404,244.531 c -0.523,-0.64 -1.566,-0.859 -2.297,-0.472 l -5.719,3.089 c -0.734,0.411 -1.75,0.18 -2.254,-0.488 l -37.66,-53.531 c -0.468,-0.688 -0.386,-1.738 0.184,-2.391 l 4.43,-4.738 c 0.566,-0.609 0.629,-1.66 0.132,-2.352 l -1.164,-1.578 c -0.496,-0.679 -1.449,-0.82 -2.125,-0.332 l -24.484,17.953 c -0.672,0.489 -0.82,1.438 -0.324,2.11 l 1.164,1.597 c 0.492,0.68 1.523,0.942 2.273,0.59 l 5.86,-2.816" /><path
         id="path64"
         style="fill:#ffffff;fill-opacity:1;fill-rule:nonzero;stroke:none"
         d="m 499.719,170.141 c 0.824,4.629 0.719,8.808 -0.321,12.558 -1.046,3.75 -3.027,7.11 -5.918,10.063 -2.906,2.957 -10.097,7.258 -10.097,7.258 -0.723,0.449 -1.914,1.089 -2.664,1.468 l -7.614,3.942 -32.339,-63.258 7.257,-3.75 c 3.497,-1.781 6.875,-3.223 10.137,-4.32 3.266,-1.071 6.406,-1.582 9.406,-1.5 4.801,0.386 9.489,2.277 14.094,5.636 4.602,3.383 8.824,8.832 12.66,16.352 2.758,5.719 4.563,10.922 5.399,15.551 z m -13.641,35.308 c 5.914,-3.008 11.074,-6.41 15.492,-10.187 4.407,-3.75 7.731,-7.992 9.973,-12.684 2.242,-4.668 3.227,-9.859 2.965,-15.59 -0.274,-5.718 -2.172,-11.988 -5.684,-18.879 -3.297,-6.449 -7.16,-11.578 -11.582,-15.39 -4.433,-3.828 -9.238,-6.367 -14.429,-7.66 -5.196,-1.27 -10.727,-1.387 -16.586,-0.368 -5.856,1.028 -16.696,5.7 -16.696,5.7 -0.769,0.328 -2.004,0.898 -2.761,1.289 l -29.04,14.859 c -0.75,0.383 -1.042,1.313 -0.664,2.063 l 0.895,1.726 c 0.379,0.75 1.352,1.203 2.152,0.942 l 6.235,-1.821 c 0.804,-0.25 1.777,0.18 2.16,0.922 l 30.461,59.59 c 0.383,0.738 0.152,1.777 -0.512,2.309 l -5.117,3.98 c -0.664,0.512 -0.895,1.539 -0.512,2.289 l 0.899,1.75 c 0.39,0.75 1.308,1.063 2.043,0.672 l 30.308,-15.512" /><path
         id="path66"
         style="fill:#ffffff;fill-opacity:1;fill-rule:nonzero;stroke:none"
         d="m 629.172,146.539 c -0.188,2.82 -0.102,3.313 -0.188,5.301 -0.117,2.441 -0.898,3.359 -3.347,4.941 -0.969,0.598 -2.047,1.11 -3.176,1.598 -1.801,0.82 -3.852,1.449 -6.133,1.859 -4.176,0.762 -8.101,0.723 -11.738,-0.117 -3.656,-0.82 -6.949,-2.461 -9.879,-4.941 -2.926,-2.461 -5.43,-5.739 -7.527,-9.852 -2.086,-4.117 -3.653,-9.039 -4.688,-14.738 -2.199,-12.149 -1.34,-21.602 2.598,-28.379 3.933,-6.8008 10.75,-11.0821 20.441,-12.8126 2.84,-0.5273 5.91,-0.7265 9.231,-0.6093 2.839,0.1211 6.101,0.5117 9.824,0.9804 1.941,0.2305 2.129,-1.1679 2.129,-1.1679 l 0.207,-1.5313 c 0,0 0.191,-1.7812 -1.278,-2.3203 -3.265,-1.2305 -6.996,-2.1094 -11.191,-2.6797 -4.844,-0.6601 -10.137,-0.4687 -15.887,0.5703 -5.507,1.0078 -10.547,2.668 -15.074,5.0391 -4.535,2.3789 -8.277,5.5195 -11.226,9.4492 -2.954,3.9301 -4.969,8.6911 -6.071,14.3401 -1.086,5.601 -0.961,12.16 0.41,19.703 1.379,7.578 3.684,13.93 6.926,19.008 3.246,5.058 7.164,9.019 11.742,11.871 4.586,2.847 9.739,4.648 15.45,5.39 5.711,0.75 11.75,0.528 18.136,-0.621 4.325,-0.8 8.317,-1.941 11.953,-3.441 2.524,-1.051 4.903,-2.129 7.149,-3.219 3.098,-1.551 2.277,-4.16 2.277,-4.16 l -3.312,-11 c 0,0 -0.797,-2.398 -2.926,-2.051 -1.891,0.332 -3.027,0.551 -3.027,0.551 0,0 -1.622,0.23 -1.805,3.039" /><path
         id="path68"
         style="fill:#ffffff;fill-opacity:1;fill-rule:nonzero;stroke:none"
         d="m 756.68,143.691 c -0.844,2.68 -0.867,3.188 -1.426,5.098 -0.699,2.32 -1.676,3.051 -4.434,3.992 -1.07,0.367 -2.242,0.617 -3.461,0.828 -1.949,0.379 -4.089,0.469 -6.398,0.34 -4.242,-0.238 -8.035,-1.211 -11.383,-2.89 -3.348,-1.68 -6.148,-4.071 -8.422,-7.129 -2.269,-3.09 -3.914,-6.879 -4.972,-11.371 -1.063,-4.489 -1.418,-9.629 -1.071,-15.43 0.727,-12.297 3.813,-21.3087 9.242,-26.9688 5.426,-5.6485 13.055,-8.1914 22.895,-7.6016 2.883,0.1797 5.914,0.7031 9.105,1.6211 2.731,0.7617 5.809,1.9297 9.321,3.2812 1.82,0.6875 2.351,-0.6601 2.351,-0.6601 l 0.551,-1.4297 c 0,0 0.606,-1.6602 -0.683,-2.5625 -2.891,-1.9688 -6.301,-3.707 -10.243,-5.25 -4.547,-1.7773 -9.742,-2.8477 -15.578,-3.1992 -5.594,-0.3281 -10.875,0.0898 -15.84,1.332 -4.961,1.2305 -9.347,3.4102 -13.136,6.5195 -3.797,3.1172 -6.883,7.2774 -9.282,12.461 -2.394,5.2265 -3.828,11.6371 -4.281,19.2771 -0.453,7.692 0.289,14.391 2.242,20.09 1.938,5.691 4.817,10.473 8.594,14.32 3.777,3.852 8.363,6.821 13.734,8.891 5.368,2.07 11.29,3.32 17.766,3.691 4.395,0.27 8.539,0.098 12.426,-0.511 2.707,-0.43 5.277,-0.899 7.707,-1.418 3.379,-0.774 3.207,-3.524 3.207,-3.524 l -0.633,-11.457 c 0,0 -0.187,-2.543 -2.344,-2.679 -1.921,-0.141 -3.07,-0.161 -3.07,-0.161 0,0 -1.629,-0.171 -2.484,2.5" /><path
         id="path70"
         style="fill:#ffffff;fill-opacity:1;fill-rule:nonzero;stroke:none"
         d="m 881.047,169.941 c -1.399,2.457 -1.527,2.93 -2.469,4.668 -1.176,2.172 -2.285,2.641 -5.16,2.993 -1.137,0.16 -2.328,0.136 -3.57,0.097 -1.977,-0.058 -4.09,-0.39 -6.328,-1.019 -4.086,-1.129 -7.598,-2.871 -10.512,-5.211 -2.926,-2.348 -5.176,-5.239 -6.738,-8.731 -1.575,-3.5 -2.391,-7.558 -2.485,-12.148 -0.094,-4.61 0.633,-9.731 2.192,-15.328 3.296,-11.883 8.195,-20.024 14.687,-24.422 6.504,-4.391 14.492,-5.27 23.988,-2.641 2.774,0.77 5.621,1.942 8.567,3.481 2.504,1.351 5.273,3.129 8.418,5.16 1.64,1.07 2.441,-0.141 2.441,-0.141 l 0.832,-1.289 c 0,0 0.945,-1.48 -0.129,-2.629 -2.402,-2.519 -5.383,-4.953 -8.914,-7.269 -4.07,-2.731 -8.918,-4.864 -14.551,-6.4339 -5.41,-1.4765 -10.656,-2.1562 -15.765,-1.9883 -5.117,0.1602 -9.86,1.3321 -14.223,3.6012 -4.359,2.258 -8.258,5.68 -11.687,10.25 -3.446,4.59 -6.18,10.571 -8.215,17.93 -2.074,7.418 -2.742,14.141 -2.039,20.141 0.711,5.968 2.511,11.226 5.398,15.777 2.887,4.57 6.738,8.43 11.559,11.602 4.816,3.121 10.351,5.578 16.605,7.32 4.239,1.168 8.324,1.879 12.246,2.09 2.739,0.16 5.356,0.238 7.84,0.219 3.457,-0.02 3.875,-2.739 3.875,-2.739 l 1.789,-11.34 c 0,0 0.332,-2.519 -1.734,-3.132 -1.848,-0.528 -2.961,-0.797 -2.961,-0.797 0,0 -1.563,-0.512 -2.957,1.929" /><path
         id="path72"
         style="fill:#ffffff;fill-opacity:1;fill-rule:nonzero;stroke:none"
         d="m 984.547,190.238 -36.934,16.731 c -0.761,0.359 -2.047,0.429 -2.843,0.203 l -5.547,-1.723 c -0.805,-0.25 -1.797,0.141 -2.215,0.86 l -0.969,1.722 c -0.414,0.739 -0.16,1.66 0.566,2.09 l 26.583,15.117 c 0.722,0.434 1.66,0.153 2.085,-0.547 l 0.965,-1.742 c 0.418,-0.719 0.246,-1.777 -0.363,-2.34 l -3.301,-3.031 c -0.621,-0.566 -0.5,-1.328 0.254,-1.68 l 26.317,-12.519 3.242,29.383 c 0.093,0.84 -0.489,1.316 -1.282,1.066 l -4.601,-1.449 c -0.805,-0.25 -1.797,0.121 -2.211,0.859 l -0.969,1.703 c -0.426,0.75 -0.16,1.68 0.563,2.09 l 21.053,12 c 0.72,0.41 1.65,0.149 2.07,-0.57 l 0.97,-1.723 c 0.42,-0.718 0.24,-1.777 -0.38,-2.34 l -4.8,-4.218 c -0.64,-0.551 -1.22,-1.68 -1.31,-2.52 l -4.084,-37.371 40.924,-19.039 c 0.76,-0.352 2.03,-0.43 2.84,-0.172 l 5.65,1.75 c 0.79,0.262 1.79,-0.129 2.2,-0.859 l 0.98,-1.707 c 0.42,-0.731 0.16,-1.66 -0.58,-2.071 l -26.67,-15.222 c -0.73,-0.391 -1.66,-0.16 -2.08,0.59 l -0.97,1.703 c -0.42,0.738 -0.25,1.789 0.38,2.34 l 3.58,3.218 c 0.63,0.571 0.52,1.328 -0.24,1.68 l -30.729,14.73 -3.738,-34.378 c -0.098,-0.84 0.488,-1.313 1.281,-1.071 l 4.391,1.328 c 0.801,0.25 1.797,-0.14 2.215,-0.859 l 0.976,-1.719 c 0.411,-0.722 0.157,-1.64 -0.57,-2.07 L 976.094,136.41 c -0.723,-0.41 -1.66,-0.16 -2.074,0.559 l -0.973,1.703 c -0.418,0.75 -0.238,1.777 0.383,2.348 l 4.808,4.242 c 0.629,0.539 1.227,1.679 1.325,2.5 l 4.984,42.476" /><path
         id="path74"
         style="fill:#ffffff;fill-opacity:1;fill-rule:nonzero;stroke:none"
         d="m 1076.07,302.539 c 0.55,-0.641 0.59,-1.699 0.08,-2.34 l -3.98,-5.14 c -0.51,-0.661 -0.47,-1.739 0.08,-2.36 l 44.26,-50.179 c 0.56,-0.622 1.6,-0.801 2.33,-0.372 l 5.58,3.301 c 0.72,0.43 1.77,0.27 2.31,-0.371 l 1.31,-1.469 c 0.55,-0.621 0.49,-1.597 -0.13,-2.14 l -22.76,-20.078 c -0.63,-0.551 -1.6,-0.512 -2.16,0.14 l -1.3,1.457 c -0.55,0.621 -0.58,1.703 -0.07,2.34 l 3.98,5.141 c 0.51,0.66 0.47,1.722 -0.08,2.359 l -44.26,50.184 c -0.55,0.617 -1.6,0.797 -2.32,0.367 l -5.59,-3.301 c -0.73,-0.43 -1.77,-0.25 -2.32,0.371 l -1.31,1.473 c -0.55,0.637 -0.49,1.598 0.14,2.137 l 22.76,20.082 c 0.63,0.57 1.6,0.488 2.16,-0.129 l 1.29,-1.473" /><path
         id="path76"
         style="fill:#ffffff;fill-opacity:1;fill-rule:nonzero;stroke:none"
         d="m 269.652,1097.41 c -0.574,-0.62 -1.007,-0.99 -1.007,-0.99 l -24.165,22.85 4.329,4.49 c 0.582,0.62 1.543,1.59 2.144,2.17 0,0 2.637,2.58 4.492,3.95 1.852,1.37 3.75,2.26 5.684,2.67 1.937,0.41 3.93,0.27 5.98,-0.4 2.047,-0.68 4.168,-2.08 6.368,-4.17 4.793,-4.57 7.07,-9.01 6.804,-13.33 -0.258,-4.32 -5.75,-11.83 -5.75,-11.83 -0.492,-0.68 -1.379,-1.73 -1.949,-2.33 z m 51.641,-8.49 c 0.82,-0.14 1.969,0.22 2.547,0.84 l 12.652,13.28 c 0.574,0.63 0.555,1.58 -0.054,2.16 l -1.426,1.36 c -0.617,0.6 -1.672,0.66 -2.36,0.19 l -4.82,-3.34 c -0.684,-0.49 -1.926,-0.77 -2.754,-0.64 l -37.773,6.15 c -0.828,0.13 -1.215,0.86 -0.864,1.62 0,0 4.629,9.98 4.442,15.16 -0.192,5.19 -2.508,9.9 -6.957,14.14 -3.184,3.01 -6.383,4.77 -9.61,5.27 -3.23,0.47 -6.378,0.14 -9.453,-1.01 -3.078,-1.13 -6.035,-2.85 -8.886,-5.16 -2.852,-2.29 -6.891,-6.27 -6.891,-6.27 -0.59,-0.59 -1.563,-1.56 -2.137,-2.17 l -22.222,-23.34 c -0.571,-0.62 -0.551,-1.59 0.054,-2.16 l 1.43,-1.36 c 0.609,-0.58 1.664,-0.66 2.348,-0.18 l 5.336,3.84 c 0.679,0.49 1.734,0.41 2.339,-0.16 l 48.606,-46.26 c 0.598,-0.58 0.726,-1.63 0.281,-2.33 l -3.562,-5.51 c -0.465,-0.72 -0.332,-1.76 0.273,-2.34 l 1.434,-1.38 c 0.613,-0.57 1.574,-0.54 2.156,0.06 l 20.816,21.88 c 0.578,0.6 0.555,1.58 -0.047,2.15 l -1.441,1.38 c -0.609,0.57 -1.652,0.65 -2.344,0.15 l -5.242,-3.74 c -0.687,-0.49 -1.742,-0.43 -2.351,0.16 l -22.391,21.31 3.316,3.49 c 0.578,0.61 1.727,0.98 2.551,0.82 l 43.004,-8.06" /></g></g></svg>
